<?xml version="1.0" encoding="UTF-8"?>
<svg width="169px" height="205px" viewBox="0 0 169 205" version="1.1" xmlns="http://www.w3.org/2000/svg" xmlns:xlink="http://www.w3.org/1999/xlink">
    <!-- Generator: Sketch 63 (92445) - https://sketch.com -->
    <title>Average Rectangle Guy Copy 33</title>
    <desc>Created with Sketch.</desc>
    <defs>
        <rect id="path-1" x="0" y="0" width="227" height="225"></rect>
        <polygon id="path-3" points="2.89692254 0.220784522 27.9918442 0.220784522 29.8277359 39.5041656 7.96008267e-13 39.5041656"></polygon>
        <linearGradient x1="-17.2390408%" y1="33.076932%" x2="59.6842448%" y2="104.843687%" id="linearGradient-5">
            <stop stop-color="#C3550A" offset="0%"></stop>
            <stop stop-color="#C3550A" stop-opacity="0" offset="100%"></stop>
        </linearGradient>
        <path d="M93.2505371,0.368654417 C102.921823,0.368654417 107.310236,8.24656234 107.310236,17.9644542 C107.310236,22.1259921 105.872475,25.9501046 103.468848,28.9626231 C103.337819,29.7915035 103.135761,30.6192013 102.860648,31.4375953 C90.7655999,67.4174927 81.6943136,94.4024158 75.6467894,112.392364 L26.7888479,112.991646 C21.8394639,94.6609822 14.4153878,67.1649859 4.51661969,30.5036576 C4.37775161,29.9893422 4.26678496,29.472332 4.18304273,28.9545142 C1.78386414,25.9433673 0.348635187,22.1223263 0.348635187,17.9644542 L0.349292606,17.3264445 C0.370196638,7.90408597 0.949705447,0.368654417 10.4084358,0.368654417 L93.2505371,0.368654417 Z" id="path-6"></path>
        <path d="M82.8011575,48.2455235 C82.7739333,67.7466053 66.9750275,83.5776684 47.5126091,83.6048936 C28.0511952,83.6320473 12.2963725,67.8450666 12.3235265,48.3439849 C12.3507508,28.8429031 28.1496565,13.01184 47.6110704,12.9846162 C67.0734888,12.9574611 82.8283115,28.7444418 82.8011575,48.2455235" id="path-8"></path>
        <linearGradient x1="1.8707483%" y1="0%" x2="96.9919218%" y2="0%" id="linearGradient-10">
            <stop stop-color="#306BBD" stop-opacity="0" offset="0%"></stop>
            <stop stop-color="#306BBD" offset="100%"></stop>
        </linearGradient>
        <path d="M247,192.424865 C247,185.592476 241.461255,180.053731 234.628866,180.053731 L234.628866,180.053731 L119.371134,180.053731 C112.538745,180.053731 107,185.592476 107,192.424865 L107,192.424865 L107,189.371134 C107,182.538745 112.538745,177 119.371134,177 L234.628866,177 C241.461255,177 247,182.538745 247,189.371134 Z" id="path-11"></path>
    </defs>
    <g id="Symbols" stroke="none" stroke-width="1" fill="none" fill-rule="evenodd">
        <g id="Illustration/girlcomputer" transform="translate(-33.000000, -20.000000)">
            <g id="Average-Rectangle-Guy-Copy-33" transform="translate(-2.000000, 0.000000)">
                <mask id="mask-2" fill="white">
                    <use xlink:href="#path-1"></use>
                </mask>
                <g id="Mask"></g>
                <g id="Group-126" mask="url(#mask-2)">
                    <g transform="translate(-59.000000, -42.000000)">
                        <g id="Hourglass-Shaped-Woman-Structure-Copy-19" stroke-width="1" fill="none" transform="translate(89.000000, 40.000000)">
                            <g id="L-Arm-Group" transform="translate(32.137493, 167.865502) rotate(4.000000) translate(-32.137493, -167.865502) translate(4.137493, 113.865502)" fill="#F5C9A6">
                                <path d="M-8.88610472,41.1831679 L62.7924591,38.3750909 C71.5175878,38.0332755 78.8677983,44.8292938 79.2096136,53.5544225 C79.2180222,53.7690588 79.2220558,53.9838442 79.221712,54.1986449 C79.207627,62.9967862 72.063906,70.1176708 63.2657647,70.1035858 C63.0894941,70.1033036 62.9132403,70.1000958 62.7370762,70.0939637 L-10.7443694,67.5361308 C-17.5117957,67.3005619 -22.8069124,61.6235126 -22.5713434,54.8560863 C-22.5659002,54.6997128 -22.5574641,54.5434579 -22.5460398,54.3874074 C-22.0162847,47.1512016 -16.1361146,41.467194 -8.88610472,41.1831679 Z" id="R-bicep" transform="translate(27.885939, 54.198645) rotate(103.000000) translate(-27.885939, -54.198645) "></path>
                            </g>
                            <path d="M126.111206,111.175495 C118.497953,111.203435 119.095182,104.321238 111.482872,104.349161 C103.876223,104.376984 103.901407,111.259926 96.2947583,111.28775 C88.6843352,111.31564 88.659167,104.433648 81.0487439,104.461538 C73.4392643,104.489411 73.4644325,111.371402 65.854026,111.400328 C58.2436029,111.428133 58.8548169,104.560664 51.2443938,104.588554 L49.922156,104.642689 L49.6804511,60.6891507 C49.6804511,39.4148468 66.8439711,22.1686159 88.016246,22.1686159 C109.188521,22.1686159 126.352041,39.4148468 126.352041,60.6891507 L126.111206,111.175495 Z" id="Path" fill="#E67A00"></path>
                            <g id="R-Arm-Group" transform="translate(109.634391, 112.256381)" fill="#F5C9A6">
                                <path d="M-2.88948137,42.4387688 L71.5053045,39.793434 C80.2984011,39.4807685 87.6800798,46.3555163 87.9927454,55.1486129 C87.9992537,55.3316473 88.0026053,55.5147804 88.0027986,55.6979304 C88.0120557,64.4693189 80.9089447,71.5874386 72.1375561,71.5966957 C71.9385554,71.5969057 71.7395683,71.5933755 71.5407002,71.586107 L-4.73264012,68.7983439 C-11.5241572,68.5501164 -16.8285414,62.8432759 -16.5803139,56.0517588 C-16.5749544,55.9051234 -16.5669726,55.7585956 -16.5563722,55.6122456 C-16.0322235,48.3757992 -10.140303,42.696594 -2.88948137,42.4387688 Z" id="R-bicep" transform="translate(35.271239, 55.697930) rotate(69.000000) translate(-35.271239, -55.697930) "></path>
                            </g>
                            <g id="Head-Shaddow" transform="translate(72.397959, 83.991696)">
                                <mask id="mask-4" fill="white">
                                    <use xlink:href="#path-3"></use>
                                </mask>
                                <use id="Mask" fill="#F5C9A6" xlink:href="#path-3"></use>
                                <path d="M-7.57250269,-13.7913026 C-7.57250269,4.85640063 7.6848582,19.9736106 26.5032737,19.9736106 L26.5032737,19.9736106 C45.323632,19.9736106 60.5800215,4.85640063 60.5800215,-13.7913026 L60.5800215,-13.7913026 C60.5800215,-32.4380433 45.323632,-47.5562158 26.5032737,-47.5562158 L26.5032737,-47.5562158 C7.6848582,-47.5562158 -7.57250269,-32.4380433 -7.57250269,-13.7913026 L-7.57250269,-13.7913026 Z" fill="url(#linearGradient-5)" style="mix-blend-mode: multiply;" mask="url(#mask-4)"></path>
                            </g>
                            <g id="Oval" transform="translate(34.994629, 116.791218)">
                                <mask id="mask-7" fill="white">
                                    <use xlink:href="#path-6"></use>
                                </mask>
                                <use id="Mask" fill="#00396C" xlink:href="#path-6"></use>
                                <path d="M103.117156,57.7874737 C103.477575,54.5904072 103.662728,51.3399526 103.662728,48.0460448 C103.662728,36.3252004 101.318359,25.1545514 97.0750918,14.9817148 C97.0467198,13.1872406 97.0367884,11.5149899 97.0367884,10.0010722 C97.0367884,-14.6876262 116.954947,-34.7017706 141.525242,-34.7017706 C166.095536,-34.7017706 186.013695,-14.6876262 186.013695,10.0010722 C186.013695,34.6897705 166.095536,54.703915 141.525242,54.703915 C133.228541,54.703915 117.883261,72.944293 111.235231,68.9707797 C107.747723,66.8863037 105.110075,62.8683736 103.117156,57.7874737 L103.117156,57.7874737 Z" id="Path" fill="#F5C9A6" mask="url(#mask-7)"></path>
                                <path d="M-74.836657,57.7874737 C-74.476238,54.5904072 -74.2910849,51.3399526 -74.2910849,48.0460448 C-74.2910849,36.3252004 -76.6354538,25.1545514 -80.8787213,14.9817148 C-80.9070933,13.1872406 -80.9170247,11.5149899 -80.9170247,10.0010722 C-80.9170247,-14.6876262 -60.9988657,-34.7017706 -36.4285714,-34.7017706 C-11.8582771,-34.7017706 8.05988185,-14.6876262 8.05988185,10.0010722 C8.05988185,34.6897705 -11.8582771,54.703915 -36.4285714,54.703915 C-44.7252718,54.703915 -60.0705518,72.944293 -66.7185822,68.9707797 C-70.2060904,66.8863037 -72.8437385,62.8683736 -74.836657,57.7874737 L-74.836657,57.7874737 Z" id="Path" fill="#F5C9A6" mask="url(#mask-7)" transform="translate(-36.428571, 17.417637) scale(-1, 1) translate(36.428571, -17.417637) "></path>
                                <ellipse fill="#F5C9A6" mask="url(#mask-7)" cx="52.5483351" cy="-46.1152624" rx="58.6868958" ry="58.9697075"></ellipse>
                            </g>
                            <g id="Head" transform="translate(87.554116, 60.064679) scale(-1, 1) rotate(17.000000) translate(-87.554116, -60.064679) translate(39.554116, 12.064679)">
                                <g id="Oval" transform="translate(0.123820, -0.000000)">
                                    <mask id="mask-9" fill="white">
                                        <use xlink:href="#path-8"></use>
                                    </mask>
                                    <use id="Head" fill="#F5C9A6" transform="translate(47.562342, 48.294755) rotate(-27.000000) translate(-47.562342, -48.294755) " xlink:href="#path-8"></use>
                                    <ellipse fill="#222222" mask="url(#mask-9)" transform="translate(60.846152, 57.320090) rotate(3.000000) translate(-60.846152, -57.320090) " cx="60.8461516" cy="57.3200898" rx="3.31301373" ry="3.32889145"></ellipse>
                                    <g id="Group-3" mask="url(#mask-9)" fill="#E67A00">
                                        <g transform="translate(2.380505, -28.995025)" id="Fill-1">
                                            <path d="M14.2257875,39.8557496 C14.2333525,39.8633417 14.240922,39.8680822 14.2465943,39.8747268 C20.1945616,45.8430642 14.8411914,51.2146142 20.7872659,57.1820041 C26.7342861,63.150343 32.0867107,57.7778439 38.0337308,63.7461828 C43.9798054,69.7135726 38.6264337,75.0860732 44.5725082,81.0534631 C50.5166915,87.0189549 55.8700632,81.6464543 61.8132994,87.6119477 C67.7612652,93.5812356 62.4088421,98.9527841 68.3568079,104.922072 L95.6900269,77.490236 C89.7420611,71.5209481 95.0954313,66.149398 89.1474655,60.1801101 C83.2042293,54.2146168 77.8508576,59.5871174 71.9076215,53.621624 C65.9605998,47.6542357 71.3130243,42.2817366 65.3669498,36.3143468 C59.4208752,30.3469569 54.0684522,35.7185054 48.1223777,29.7511155 C42.1744103,23.7827782 47.5277805,18.4112282 41.581706,12.4438383 C41.574141,12.4362462 41.5665714,12.4315057 41.5599521,12.4248626 L14.2257875,39.8557496 Z" transform="translate(54.957907, 58.673467) rotate(159.000000) translate(-54.957907, -58.673467) "></path>
                                        </g>
                                    </g>
                                </g>
                                <path d="M56.2256022,67.7645548 L56.7010918,69.9417793 C57.0372583,71.4810198 56.0679584,73.0026508 54.5360999,73.3404372 C54.0018712,73.4582387 53.4451522,73.4185107 52.9328538,73.226028 C50.9429869,72.4783877 49.8235941,71.5346926 49.5746755,70.3949428 C49.3273748,69.2626016 49.9378151,67.9300914 51.4059961,66.3974121 C52.4935955,65.262038 54.2912574,65.2275542 55.4211884,66.3203926 C55.8254236,66.7113578 56.1053377,67.2138868 56.2256022,67.7645548 Z" id="Nose" fill="#F4C9A5" opacity="0.53889974" style="mix-blend-mode: multiply;"></path>
                                <g id="eyes" transform="translate(36.474755, 59.963575)" fill="#222222">
                                    <ellipse id="Oval" transform="translate(3.919003, 3.780627) rotate(3.000000) translate(-3.919003, -3.780627) " cx="3.9190028" cy="3.78062726" rx="3.3130061" ry="3.32889148"></ellipse>
                                </g>
                            </g>
                            <path d="M88.016246,22.1686159 C109.188521,22.1686159 126.352041,39.4148468 126.352041,60.6891507 L126.111206,111.175495 C119.874586,111.198383 119.14765,106.58419 114.904078,104.930109 L114.993287,76.858264 C114.993287,55.5839601 97.8297668,38.3377293 76.6574919,38.3377293 C67.2931221,38.3377293 58.7129608,41.7115054 52.0552018,47.315379 C57.4635426,32.6335737 71.5236445,22.1686159 88.016246,22.1686159 Z" id="Combined-Shape" fill="#E67A00"></path>
                        </g>
                        <path d="M119.371134,178 L234.628866,178 C241.461255,178 247,183.538745 247,190.371134 L247,277 L247,277 L107,277 L107,190.371134 C107,183.538745 112.538745,178 119.371134,178 Z" id="Rectangle" fill="#306BBD"></path>
                        <g id="Combined-Shape" fill="none">
                            <use fill="#B1DCFE" xlink:href="#path-11"></use>
                            <use fill="url(#linearGradient-10)" xlink:href="#path-11"></use>
                        </g>
                        <circle id="Oval" fill="#4989E2" cx="176" cy="226" r="15"></circle>
                    </g>
                </g>
            </g>
        </g>
    </g>
</svg>