<?xml version="1.0" encoding="UTF-8"?>
<svg width="22px" height="24px" viewBox="0 0 22 24" version="1.1" xmlns="http://www.w3.org/2000/svg" xmlns:xlink="http://www.w3.org/1999/xlink">
    <!-- Generator: Sketch 63 (92445) - https://sketch.com -->
    <title>Group 437</title>
    <desc>Created with Sketch.</desc>
    <defs>
        <path d="M0.101915493,9.48688732 C0.101915493,14.6326761 4.05380282,18.8041127 8.92850704,18.8041127 L8.92850704,18.8041127 C13.8034648,18.8041127 17.7553521,14.6326761 17.7553521,9.48688732 L17.7553521,9.48688732 C17.7553521,4.3416338 13.8034648,0.170197183 8.92850704,0.170197183 L8.92850704,0.170197183 C4.05380282,0.170197183 0.101915493,4.3416338 0.101915493,9.48688732" id="path-1"></path>
        <path d="M0.101915493,9.48688732 C0.101915493,14.6326761 4.05380282,18.8041127 8.92850704,18.8041127 L8.92850704,18.8041127 C13.8034648,18.8041127 17.7553521,14.6326761 17.7553521,9.48688732 L17.7553521,9.48688732 C17.7553521,4.3416338 13.8034648,0.170197183 8.92850704,0.170197183 L8.92850704,0.170197183 C4.05380282,0.170197183 0.101915493,4.3416338 0.101915493,9.48688732" id="path-3"></path>
    </defs>
    <g id="Symbols" stroke="none" stroke-width="1" fill="none" fill-rule="evenodd">
        <g id="Icon/avatar/girl" transform="translate(-1.000000, 0.000000)">
            <g id="Group-437" transform="translate(1.000000, 0.000000)" fill="#E67A00">
                <path d="M0,21.8062351 C0,21.8062351 0.3238248,21.796697 0.326539173,21.796697 C2.51541024,21.8261062 2.30531771,23.7355824 4.49418877,23.7652566 C6.6827884,23.7944008 6.70993214,21.877506 8.89853177,21.9069151 C11.0876743,21.9360593 11.0605305,23.8532191 13.2494016,23.8826283 C15.4371869,23.9117725 15.4643307,21.9948777 17.6518445,22.0242868 C19.8415299,22.053696 19.8105861,23.9705908 22,24 L22,14.2059525 C19.8105861,14.1765433 19.9791487,12.2644176 17.7897347,12.2350084 C15.6019494,12.2058642 15.5750771,14.122759 13.3870204,14.0933498 C11.1984207,14.0639407 11.225293,12.1470458 9.03642196,12.1176367 C6.84782233,12.0882275 6.82067859,14.0053873 4.63180753,13.9759781 C2.4432079,13.9465689 2.31074645,12.0296741 0.121875386,12 C0.119161012,12 0.124589759,12.0002649 0.121875386,12 L0,21.8062351 Z" id="Fill-433"></path>
                <path d="M11.0001365,0 L11.0001365,0 C17.0751728,0 22,4.77887926 22,10.673881 L22,21 L0,21 L0,10.673881 C0,4.77887926 4.92482724,0 11.0001365,0" id="Fill-435"></path>
            </g>
            <g id="Group-444" transform="translate(3.000000, 2.000000)">
                <g id="Group-440">
                    <mask id="mask-2" fill="white">
                        <use xlink:href="#path-1"></use>
                    </mask>
                    <g id="Clip-439"></g>
                    <path d="M17.7554028,9.48686056 C17.7554028,14.6326493 13.8035155,18.8038183 8.92881127,18.8038183 C4.05385352,18.8038183 0.101966197,14.6326493 0.101966197,9.48686056 C0.101966197,4.34133944 4.05385352,0.170170423 8.92881127,0.170170423 C13.8035155,0.170170423 17.7554028,4.34133944 17.7554028,9.48686056" id="Fill-438" fill="#F5C9A6" mask="url(#mask-2)"></path>
                </g>
                <g id="Group-443">
                    <mask id="mask-4" fill="white">
                        <use xlink:href="#path-3"></use>
                    </mask>
                    <g id="Clip-442"></g>
                    <polyline id="Fill-441" fill="#E67A00" mask="url(#mask-4)" points="1.16437183 2.44289155 21.3994141 13.4824268 22.3087944 -2.11684085 -6.56574085 -12.1964746"></polyline>
                </g>
            </g>
        </g>
    </g>
</svg>