<?xml version="1.0" encoding="UTF-8"?>
<svg width="1800px" height="863px" viewBox="0 0 1800 863" version="1.1" xmlns="http://www.w3.org/2000/svg" xmlns:xlink="http://www.w3.org/1999/xlink">
    <!-- Generator: Sketch 63 (92445) - https://sketch.com -->
    <title>Landscape</title>
    <desc>Created with Sketch.</desc>
    <defs>
        <path d="M9.09494702e-13,1 C309.333333,0.333333333 909.333333,0.333333333 1800,1 L1802,572 C1072,577.333333 471.333333,674.666667 9.09494702e-13,864 C9.09494702e-13,463 9.09494702e-13,337 9.09494702e-13,1 Z" id="path-1"></path>
        <rect id="path-3" x="0" y="0" width="1923" height="1544"></rect>
        <linearGradient x1="50%" y1="0%" x2="50%" y2="57.6649718%" id="linearGradient-5">
            <stop stop-color="#FFFFFF" offset="0%"></stop>
            <stop stop-color="#E8F6FA" offset="100%"></stop>
        </linearGradient>
        <path d="M0,1618.02417 C256.4,1502.41229 577.754667,1492.87958 964.064,1589.42605 C1350.37333,1685.97251 1670.01867,1695.50522 1923,1618.02417 L1923,9.09494702e-13 L0,9.09494702e-13 L0,1618.02417 Z" id="path-6"></path>
        <linearGradient x1="83.6394456%" y1="11.604594%" x2="20.2562068%" y2="60.9746048%" id="linearGradient-8">
            <stop stop-color="#FFAA25" offset="0%"></stop>
            <stop stop-color="#FFD00D" offset="100%"></stop>
        </linearGradient>
        <linearGradient x1="50%" y1="-8.1686477%" x2="50%" y2="96.2280319%" id="linearGradient-9">
            <stop stop-color="#BBEABB" offset="0%"></stop>
            <stop stop-color="#21B01E" offset="100%"></stop>
        </linearGradient>
        <linearGradient x1="50%" y1="-8.1686477%" x2="50%" y2="96.2280319%" id="linearGradient-10">
            <stop stop-color="#BBEABB" offset="0%"></stop>
            <stop stop-color="#21B01E" offset="100%"></stop>
        </linearGradient>
        <linearGradient x1="50%" y1="-8.1686477%" x2="50%" y2="96.2280319%" id="linearGradient-11">
            <stop stop-color="#BBEABB" offset="0%"></stop>
            <stop stop-color="#21B01E" offset="100%"></stop>
        </linearGradient>
        <linearGradient x1="50%" y1="0%" x2="50%" y2="100%" id="linearGradient-12">
            <stop stop-color="#FFFFFF" offset="0%"></stop>
            <stop stop-color="#FFFFFF" stop-opacity="0.766225962" offset="65.1011561%"></stop>
            <stop stop-color="#FFFFFF" stop-opacity="0" offset="100%"></stop>
        </linearGradient>
        <linearGradient x1="50%" y1="0%" x2="50%" y2="100%" id="linearGradient-13">
            <stop stop-color="#FFFFFF" offset="0%"></stop>
            <stop stop-color="#FFFFFF" stop-opacity="0.766225962" offset="65.1011561%"></stop>
            <stop stop-color="#FFFFFF" stop-opacity="0" offset="100%"></stop>
        </linearGradient>
        <linearGradient x1="50%" y1="0%" x2="50%" y2="100%" id="linearGradient-14">
            <stop stop-color="#FFFFFF" offset="0%"></stop>
            <stop stop-color="#FFFFFF" stop-opacity="0.766225962" offset="65.1011561%"></stop>
            <stop stop-color="#FFFFFF" stop-opacity="0" offset="100%"></stop>
        </linearGradient>
        <linearGradient x1="50%" y1="0%" x2="50%" y2="100%" id="linearGradient-15">
            <stop stop-color="#FFFFFF" offset="0%"></stop>
            <stop stop-color="#FFFFFF" stop-opacity="0.766225962" offset="65.1011561%"></stop>
            <stop stop-color="#FFFFFF" stop-opacity="0" offset="100%"></stop>
        </linearGradient>
        <linearGradient x1="50%" y1="0%" x2="50%" y2="100%" id="linearGradient-16">
            <stop stop-color="#FFFFFF" offset="0%"></stop>
            <stop stop-color="#FFFFFF" stop-opacity="0.766225962" offset="65.1011561%"></stop>
            <stop stop-color="#FFFFFF" stop-opacity="0" offset="100%"></stop>
        </linearGradient>
        <linearGradient x1="50%" y1="0%" x2="50%" y2="100%" id="linearGradient-17">
            <stop stop-color="#FFFFFF" offset="0%"></stop>
            <stop stop-color="#FFFFFF" stop-opacity="0.766225962" offset="65.1011561%"></stop>
            <stop stop-color="#FFFFFF" stop-opacity="0" offset="100%"></stop>
        </linearGradient>
        <linearGradient x1="50%" y1="-8.1686477%" x2="50%" y2="96.2280319%" id="linearGradient-18">
            <stop stop-color="#BBEABB" offset="0%"></stop>
            <stop stop-color="#21B01E" offset="100%"></stop>
        </linearGradient>
        <linearGradient x1="50%" y1="-8.1686477%" x2="50%" y2="96.2280319%" id="linearGradient-19">
            <stop stop-color="#BBEABB" offset="0%"></stop>
            <stop stop-color="#21B01E" offset="100%"></stop>
        </linearGradient>
        <linearGradient x1="50%" y1="-8.1686477%" x2="50%" y2="96.2280319%" id="linearGradient-20">
            <stop stop-color="#BBEABB" offset="0%"></stop>
            <stop stop-color="#21B01E" offset="100%"></stop>
        </linearGradient>
        <linearGradient x1="50%" y1="-8.1686477%" x2="50%" y2="96.2280319%" id="linearGradient-21">
            <stop stop-color="#BBEABB" offset="0%"></stop>
            <stop stop-color="#21B01E" offset="100%"></stop>
        </linearGradient>
    </defs>
    <g id="Home-Delivery" stroke="none" stroke-width="1" fill="none" fill-rule="evenodd">
        <g id="Desktop_Homepage">
            <g id="Landscape" transform="translate(0.000000, -1.000000)">
                <mask id="mask-2" fill="white">
                    <use xlink:href="#path-1"></use>
                </mask>
                <use id="Mask" fill="#F3FFFF" xlink:href="#path-1"></use>
                <g id="Morning-Artwork-Copy" opacity="0.4" style="mix-blend-mode: multiply;" mask="url(#mask-2)">
                    <g transform="translate(-24.000000, -468.000000)">
                        <mask id="mask-4" fill="white">
                            <use xlink:href="#path-3"></use>
                        </mask>
                        <use id="Mask" stroke="none" fill="#FFFFFF" fill-rule="evenodd" xlink:href="#path-3"></use>
                        <g id="Morning-Artwork-Copy" stroke="none" stroke-width="1" fill="none" fill-rule="evenodd" mask="url(#mask-4)">
                            <g transform="translate(0.000000, -128.000000)">
                                <mask id="mask-7" fill="white">
                                    <use xlink:href="#path-6"></use>
                                </mask>
                                <use id="Sky" stroke="none" fill="url(#linearGradient-5)" fill-rule="evenodd" xlink:href="#path-6"></use>
                                <g id="Sun" stroke="none" stroke-width="1" fill="none" fill-rule="evenodd" mask="url(#mask-7)">
                                    <g transform="translate(1097.392000, 854.983320)" id="Oval">
                                        <ellipse fill="url(#linearGradient-8)" cx="315.372" cy="318.08611" rx="315.372" ry="318.08611"></ellipse>
                                        <ellipse fill="#FFFFFF" opacity="0.15" cx="323.064" cy="320.672176" rx="179.48" ry="181.024616"></ellipse>
                                        <ellipse fill="#FFFFFF" opacity="0.2" cx="320.5" cy="318.08611" rx="64.1" ry="64.6516484"></ellipse>
                                    </g>
                                </g>
                                <g id="Landscape" stroke="none" stroke-width="1" fill="none" fill-rule="evenodd" mask="url(#mask-7)">
                                    <g transform="translate(0.000000, 911.876771)">
                                        <path d="M0,0 C239.306667,0 482.032,63.7896265 728.176,191.368879 C974.32,318.948132 1170.89333,367.221363 1317.896,336.188572 L1923,336.188572 L1923,760.303386 L0,760.303386 L0,0 Z" id="top-left-land" fill="url(#linearGradient-9)"></path>
                                        <path d="M1923,201.713143 C1683.69333,218.953583 1384.56,287.915341 1025.6,408.598418 C666.64,529.281495 324.773333,551.694067 0,475.836133 L0,760.303386 L1923,760.303386 L1923,201.713143 Z" id="right-land" fill="url(#linearGradient-10)"></path>
                                        <path d="M0,398.254154 C232.469333,429.286946 464.938667,501.696792 697.408,615.483693 C1046.112,786.164045 984.576,760.303386 974.32,760.303386 C817.061333,760.303386 492.288,760.303386 0,760.303386 L0,398.254154 Z" id="left-land" fill="url(#linearGradient-11)"></path>
                                    </g>
                                </g>
                                <g id="Cloud-7" stroke="none" stroke-width="1" fill="none" fill-rule="evenodd" mask="url(#mask-7)">
                                    <g transform="translate(548.696000, 922.221035)" fill="url(#linearGradient-12)" id="Shape">
                                        <path d="M0,51.7213188 C0,31.7259829 16.6901941,15.5172724 37.2766154,15.5172724 C40.3835374,15.5172724 43.3550394,15.994515 46.2401305,16.6897109 C55.9671565,6.48724201 69.7580726,0 85.2036923,0 C114.61434,0 138.456,23.1556586 138.456,51.7200661 L0,51.7200661 L0,51.7213188 Z"></path>
                                    </g>
                                </g>
                                <g id="Cloud-6" stroke="none" stroke-width="1" fill="none" fill-rule="evenodd" mask="url(#mask-7)">
                                    <g transform="translate(846.120000, 932.565299)" fill="url(#linearGradient-13)" id="Shape">
                                        <path d="M112.495337,16.5505727 C109.771006,16.5505727 107.197881,17.0629087 104.730341,17.8071048 C96.9145074,7.06300707 83.9511215,0 69.228,0 C54.5048785,0 41.5414926,7.06425363 33.7256594,17.8071048 C31.258119,17.0629087 28.6836909,16.5505727 25.9606629,16.5505727 C11.6233798,16.5505727 0,27.6661452 0,41.377055 L138.456,41.377055 C138.456,27.6661452 126.83262,16.5505727 112.495337,16.5505727 Z"></path>
                                    </g>
                                </g>
                                <g id="Cloud-5" stroke="none" stroke-width="1" fill="none" fill-rule="evenodd" mask="url(#mask-7)">
                                    <g transform="translate(769.200000, 942.909562)" fill="url(#linearGradient-12)" id="Shape">
                                        <path d="M0,51.7213188 C0,31.7259829 16.6901941,15.5172724 37.2766154,15.5172724 C40.3835374,15.5172724 43.3550394,15.994515 46.2401305,16.6897109 C55.9671565,6.48724201 69.7580726,0 85.2036923,0 C114.61434,0 138.456,23.1556586 138.456,51.7200661 L0,51.7200661 L0,51.7213188 Z"></path>
                                    </g>
                                </g>
                                <g id="Cloud-4" stroke="none" stroke-width="1" fill="none" fill-rule="evenodd" mask="url(#mask-7)">
                                    <g transform="translate(907.656000, 1025.663672)" fill="url(#linearGradient-14)" id="Shape">
                                        <path d="M76.92,31.0327913 C76.92,19.0354766 67.6485326,9.31023138 56.21101,9.31023138 C54.4844261,9.31023138 52.8342176,9.59653839 51.2315872,10.0141789 C45.8277178,3.89272476 38.1663931,0 29.584808,0 C13.24549,0 0,13.8937703 0,31.0327913 L76.92,31.0327913 Z"></path>
                                    </g>
                                </g>
                                <g id="Cloud-3" stroke="none" stroke-width="1" fill="none" fill-rule="evenodd" mask="url(#mask-7)">
                                    <g transform="translate(1025.600000, 1004.975145)" fill="url(#linearGradient-15)" id="Shape">
                                        <path d="M140.209949,24.0720317 C136.259566,21.9782257 131.863315,20.688797 127.143492,20.688797 C124.064461,20.688797 121.154859,21.3287956 118.366278,22.2598251 C109.534286,8.829286 94.8818153,0 78.2420512,0 C61.6022871,0 46.9485429,8.829286 38.1165505,22.2598251 C35.3279696,21.3287956 32.4183676,20.688797 29.34061,20.688797 C13.1352479,20.688797 0,34.5814825 0,51.7213188 L148.712,51.7213188 C146.221513,42.3423076 143.41255,33.1101594 140.209949,24.0720317 Z"></path>
                                    </g>
                                </g>
                                <g id="Cloud-2" stroke="none" stroke-width="1" fill="none" fill-rule="evenodd" mask="url(#mask-7)">
                                    <g transform="translate(1512.760000, 932.565299)" fill="url(#linearGradient-16)" id="Shape">
                                        <path d="M143.584,56.8934506 C143.584,34.8986084 126.276773,17.0684382 104.92702,17.0684382 C101.704736,17.0684382 98.6232877,17.5937243 95.6318185,18.3581431 C85.5450643,7.13636709 71.2423469,0 55.224816,0 C24.7246101,0 0,25.4716717 0,56.8934506 L143.584,56.8934506 Z"></path>
                                    </g>
                                </g>
                                <g id="Cloud-1" stroke="none" stroke-width="1" fill="none" fill-rule="evenodd" mask="url(#mask-7)">
                                    <g transform="translate(1605.064000, 953.253826)" fill="url(#linearGradient-17)" id="Shape">
                                        <path d="M154.159446,22.7573803 C150.42684,22.7573803 146.899295,23.4622438 143.518406,24.485915 C132.808581,9.71366783 115.042367,0 94.8673511,0 C74.692335,0 56.9261212,9.71242249 46.216296,24.485915 C42.8354072,23.4634892 39.3078617,22.7573803 35.5752567,22.7573803 C15.9271661,22.7573803 0,38.0402176 0,56.8934506 L189.736,56.8934506 C189.734702,38.041463 173.806238,22.7573803 154.159446,22.7573803 Z"></path>
                                    </g>
                                </g>
                                <g id="Tree-5" stroke="none" stroke-width="1" fill="none" fill-rule="evenodd" mask="url(#mask-7)">
                                    <g transform="translate(1728.136000, 1051.524332)" id="Shape">
                                        <path d="M23.076,93.0983738 C21.659704,93.0983738 20.512,91.4666022 20.512,89.4539534 L20.512,50.1936072 C20.512,48.1809585 21.6587873,46.5491869 23.076,46.5491869 C24.4932127,46.5491869 25.64,48.1809585 25.64,50.1936072 L25.64,89.4539534 C25.6390833,91.4666022 24.492296,93.0983738 23.076,93.0983738 Z" fill="#21B01E"></path>
                                        <path d="M46.152,50.1299932 C46.152,62.4351461 35.8208645,72.4098463 23.076,72.4098463 C10.3311355,72.4098463 0,62.4351461 0,50.1299932 C0,37.8248403 10.3311355,0 23.076,0 C35.8208645,0 46.152,37.8248403 46.152,50.1299932 Z" fill="url(#linearGradient-18)"></path>
                                    </g>
                                </g>
                                <g id="Tree-4" stroke="none" stroke-width="1" fill="none" fill-rule="evenodd" mask="url(#mask-7)">
                                    <g transform="translate(1487.120000, 1284.270266)" id="Shape">
                                        <path d="M35.896,149.991824 C33.0631935,149.991824 30.768,147.453247 30.768,144.322292 L30.768,83.2515107 C30.768,80.1205558 33.0620448,77.5819781 35.896,77.5819781 C38.7288065,77.5819781 41.024,80.1205558 41.024,83.2515107 L41.024,144.322292 C41.0228513,147.453247 38.7288065,149.991824 35.896,149.991824 Z" fill="#21B01E"></path>
                                        <path d="M71.792,78.7759394 C71.792,98.1115504 55.7203937,113.786901 35.896,113.786901 C16.0716063,113.786901 0,98.1115504 0,78.7759394 C0,59.4403285 16.0716063,0 35.896,0 C55.7203937,0 71.792,59.4390531 71.792,78.7759394 Z" fill="url(#linearGradient-19)"></path>
                                    </g>
                                </g>
                                <g id="Tree-3" stroke="none" stroke-width="1" fill="none" fill-rule="evenodd" mask="url(#mask-7)">
                                    <g transform="translate(630.744000, 1154.966969)" id="Shape">
                                        <path d="M25.64,113.786901 C24.0653523,113.786901 22.7911111,111.896379 22.7911111,109.566406 L22.7911111,64.1083381 C22.7911111,61.7783651 24.066347,59.8878428 25.64,59.8878428 C27.213653,59.8878428 28.4888889,61.7783651 28.4888889,64.1083381 L28.4888889,109.566406 C28.4888889,111.897854 27.213653,113.786901 25.64,113.786901 Z" fill="#21B01E"></path>
                                        <path d="M51.28,58.0448019 C51.28,72.292016 39.8013148,83.8429799 25.64,83.8429799 C11.4801408,83.8429799 0,72.2934805 0,58.0448019 C0,43.7975879 11.4786852,0 25.64,0 C39.7998592,-0.00146455736 51.28,43.7961234 51.28,58.0448019 Z" fill="url(#linearGradient-20)"></path>
                                    </g>
                                </g>
                                <g id="Tree-3" stroke="none" stroke-width="1" fill="none" fill-rule="evenodd" mask="url(#mask-7)">
                                    <g transform="translate(938.424000, 1118.762046)" id="Shape">
                                        <path d="M23.076,98.2705056 C21.658817,98.2705056 20.512,96.6377818 20.512,94.6255324 L20.512,55.366292 C20.512,53.3540426 21.6597123,51.7213188 23.076,51.7213188 C24.4922877,51.7213188 25.64,53.3540426 25.64,55.366292 L25.64,94.6255324 C25.64,96.6390553 24.4922877,98.2705056 23.076,98.2705056 Z" fill="#21B01E"></path>
                                        <path d="M46.152,50.1296017 C46.152,62.4340138 35.8211833,72.4098463 23.076,72.4098463 C10.3321267,72.4098463 0,62.4352786 0,50.1296017 C0,37.8251896 10.3308167,0 23.076,0 C35.8198733,-0.00126484499 46.152,37.8239247 46.152,50.1296017 Z" fill="url(#linearGradient-18)"></path>
                                    </g>
                                </g>
                                <g id="Tree-2" stroke="none" stroke-width="1" fill="none" fill-rule="evenodd" mask="url(#mask-7)">
                                    <g transform="translate(646.128000, 984.286617)" id="Shape">
                                        <path d="M23.076,98.2705056 C21.6590526,98.2705056 20.512,96.6387464 20.512,94.6256735 L20.512,55.3661509 C20.512,53.353078 21.6590526,51.7213188 23.076,51.7213188 C24.4929474,51.7213188 25.64,53.353078 25.64,55.3661509 L25.64,94.6256735 C25.64,96.6374315 24.4929474,98.2705056 23.076,98.2705056 Z" fill="#21B01E"></path>
                                        <path d="M46.152,50.1296927 C46.152,62.4345741 35.8204114,72.4098463 23.076,72.4098463 C10.3315886,72.4098463 0,62.4345741 0,50.1296927 C0,37.8248112 10.3315886,0 23.076,0 C35.8204114,0 46.152,37.8248112 46.152,50.1296927 Z" fill="url(#linearGradient-18)"></path>
                                    </g>
                                </g>
                                <g id="Tree-1" stroke="none" stroke-width="1" fill="none" fill-rule="evenodd" mask="url(#mask-7)">
                                    <g transform="translate(282.040000, 1118.762046)" id="Shape">
                                        <path d="M20.7968889,100.448245 C17.8050582,100.448245 15.384,98.557723 15.384,96.22775 L15.384,50.7696822 C15.384,48.4397093 17.8069482,46.5491869 20.7968889,46.5491869 C23.7868296,46.5491869 26.2097778,48.4397093 26.2097778,50.7696822 L26.2097778,96.22775 C26.2097778,98.5591977 23.7868296,100.448245 20.7968889,100.448245 Z" fill="#21B01E"></path>
                                        <path d="M41.024,50.1300553 C41.024,62.4359861 31.8395802,72.4098463 20.512,72.4098463 C9.18441982,72.4098463 0,62.4338832 0,50.1300553 C0,37.8241245 9.18441982,0 20.512,0 C31.8395802,0 41.024,37.8262274 41.024,50.1300553 Z" fill="url(#linearGradient-21)"></path>
                                    </g>
                                </g>
                            </g>
                        </g>
                    </g>
                </g>
            </g>
        </g>
    </g>
</svg>