<?xml version="1.0" encoding="UTF-8"?>
<svg width="160px" height="148px" viewBox="0 0 160 148" version="1.1" xmlns="http://www.w3.org/2000/svg" xmlns:xlink="http://www.w3.org/1999/xlink">
    <!-- Generator: Sketch 63 (92445) - https://sketch.com -->
    <title>Symbols</title>
    <desc>Created with Sketch.</desc>
    <g id="Symbols" stroke="none" stroke-width="1" fill="none" fill-rule="evenodd">
        <g id="Illustration/prescription" transform="translate(-29.000000, -39.000000)">
            <g id="Perscription" transform="translate(29.000000, 92.000000)">
                <polygon id="Fill-74" fill="#F5F5F5" points="52.5853655 0 0 0 0 91 82 91 82 29.1379445"></polygon>
                <polygon id="Fill-76" fill="#B01828" points="53 29 82 29 53 0"></polygon>
                <path d="M15,52 L15,15 L25.9169556,15 C30.3997295,15 34.0342063,18.6501755 34.0342063,23.1528555 C34.0342063,27.6549921 30.3997295,31.3051676 25.9169556,31.3051676 L16.8621419,31.3051676 L37,51.5294653" id="Stroke-78" stroke="#E87722" stroke-width="3.5819" stroke-linecap="round" stroke-linejoin="round"></path>
                <line x1="24" y1="52" x2="38" y2="39" id="Stroke-80" stroke="#E87722" stroke-width="3.5819" stroke-linecap="round" stroke-linejoin="round"></line>
                <line x1="13" y1="64.5" x2="70" y2="64.5" id="Stroke-82" stroke="#E87722" stroke-width="3.5819" stroke-linecap="round" stroke-linejoin="round"></line>
                <line x1="13" y1="74.5" x2="70" y2="74.5" id="Stroke-84" stroke="#E87722" stroke-width="3.5819" stroke-linecap="round" stroke-linejoin="round"></line>
            </g>
            <g id="Group-6" transform="translate(4.000000, 3.000000)">
                <path d="M185,184 L101,184 L101,107.567003 C101,87.9217355 117.083377,72 136.928088,72 L149.071912,72 C168.913497,72 185,87.9217355 185,107.567003 L185,184 Z" id="Fill-11" fill="#FFBBA6"></path>
                <polygon id="Fill-13" fill="#820C0F" points="108 69 177 69 177 36 108 36"></polygon>
                <path d="M141.881907,115.955752 L156,130.073845 L132.07071,154 L117.955752,139.881907 C111.348083,133.274238 111.348083,122.56342 117.955752,115.955752 C124.56342,109.348083 135.277373,109.348083 141.881907,115.955752" id="Fill-15" fill="#FFFFFF"></path>
                <path d="M169.044248,142.115987 C175.651917,148.724138 175.651917,159.435737 169.044248,166.043887 C162.439714,172.652038 151.725762,172.652038 145.118093,166.043887 L131,151.9279 L154.92929,128 L169.044248,142.115987 Z" id="Fill-16" fill="#E87722"></path>
            </g>
        </g>
    </g>
</svg>