<?xml version="1.0" encoding="UTF-8"?>
<svg width="184px" height="211px" viewBox="0 0 184 211" version="1.1" xmlns="http://www.w3.org/2000/svg" xmlns:xlink="http://www.w3.org/1999/xlink">
    <!-- Generator: Sketch 63 (92445) - https://sketch.com -->
    <title>Average Rectangle Guy Copy 33</title>
    <desc>Created with Sketch.</desc>
    <defs>
        <rect id="path-1" x="0" y="0" width="227" height="225"></rect>
        <radialGradient cx="43.2762793%" cy="66.4470878%" fx="43.2762793%" fy="66.4470878%" r="65.6577145%" gradientTransform="translate(0.432763,0.664471),scale(1.000000,0.843748),rotate(123.256512),translate(-0.432763,-0.664471)" id="radialGradient-3">
            <stop stop-color="#D0D0D0" stop-opacity="0.49885271" offset="0%"></stop>
            <stop stop-color="#D0D0D0" stop-opacity="0" offset="100%"></stop>
        </radialGradient>
        <path d="M31.8002512,8.29906979 L91.1146268,82.2523633 C97.5175873,90.460557 96.8467858,101.950421 88.8823058,108.648017 L87.218337,107.712949 C79.5432804,114.16716 68.1219863,113.147892 61.7081626,105.436351 C61.5868915,105.290543 63.0843402,106.11787 62.967674,105.968311 L16.9323338,43.647364 C10.5293733,35.4391703 -0.0468347285,22.1567452 5.36845403,10.4891164 C13.3775951,1.88173525 22.1881942,1.1517197 31.8002512,8.29906979 Z" id="path-4"></path>
        <polygon id="path-5" points="9.5397537 3.51911411 41.4732164 4.39441086 40.0885775 44.9156837 4.24297804 44.8719373"></polygon>
        <linearGradient x1="50%" y1="73.0158084%" x2="7.29374326%" y2="99.2047705%" id="linearGradient-7">
            <stop stop-color="#E97721" stop-opacity="0.482654065" offset="0%"></stop>
            <stop stop-color="#E97721" stop-opacity="0" offset="100%"></stop>
        </linearGradient>
        <linearGradient x1="44.9386445%" y1="50%" x2="30.912865%" y2="56.4048004%" id="linearGradient-8">
            <stop stop-color="#D0D0D0" stop-opacity="0" offset="0%"></stop>
            <stop stop-color="#D0D0D0" stop-opacity="0.49885271" offset="100%"></stop>
        </linearGradient>
        <path d="M65.807281,10.8814024 C106.759888,9.8981318 112.424434,43.1973719 118.492442,83.8494351 C124.56045,124.501498 135.241872,135.191253 134.435596,158.279991 C133.629319,181.368729 132.614792,194.484714 127.923057,201.86511 C122.703914,210.075151 110.913866,211.401855 93.9860474,213.209197 C62.3892367,216.582712 19.076271,216.729896 20.073677,188.167925 C21.4421388,148.980306 20.4009016,87.6764432 21.1790892,65.3920643 C23.629479,29.7071368 38.5055429,11.5369161 65.807281,10.8814024 Z" id="path-9"></path>
        <path d="M52.3291326,4.13796204 C55.2290372,3.42282036 65.2503596,9.82550219 71.2597664,11.1114346 C77.2691732,12.397367 82.2088893,7.08130988 85.4587042,8.16051223 C92.0587026,10.3522475 104.61002,17.2564852 111.416434,20.2479401 C111.763994,20.4006943 112.099554,20.5504575 112.421862,20.6968175 C112.421862,20.6968175 103.42451,17.3334098 104.395566,27.9160001 C105.366622,38.4985903 106.076593,38.5494994 106.050921,38.916614 C105.573698,45.7412263 70.8435567,45.7460881 1.86049728,38.9311993 L2.0733979,38.0611924 C3.73496788,31.2713305 7.92535383,25.3746978 13.7856453,21.5799372 C29.9537996,11.1104449 44.0003553,6.19191091 52.3291326,4.13796204 Z" id="path-10"></path>
        <path d="M12.139948,6.50675276 L24.4807913,4.02523222 C28.7186773,3.17306995 32.8449767,5.9177413 33.6971389,10.1556273 C33.8136147,10.7348724 33.8641277,11.3254436 33.8477128,11.9160552 L32.5694293,57.9088862 L32.5694293,57.9088862 L4.02876131,55.567115 L5.86351181,13.836333 C6.02160037,10.240662 8.61143244,7.21627345 12.139948,6.50675276 Z" id="path-12"></path>
    </defs>
    <g id="Symbols" stroke="none" stroke-width="1" fill="none" fill-rule="evenodd">
        <g id="Illustration/senior" transform="translate(-26.000000, -14.000000)">
            <g id="Average-Rectangle-Guy-Copy-33" transform="translate(-2.000000, 0.000000)">
                <mask id="mask-2" fill="white">
                    <use xlink:href="#path-1"></use>
                </mask>
                <g id="Mask"></g>
                <g mask="url(#mask-2)">
                    <g transform="translate(-48.000000, -13.000000)">
                        <g id="R-Leg-Group-Copy-2" stroke-width="1" fill="none" transform="translate(144.187714, 409.749837) rotate(21.000000) translate(-144.187714, -409.749837) translate(62.687714, 220.249837)">
                            <path d="M52.9371035,201.648203 L3.96242984,24.3964513 C7.58587683,12.3502178 20.2273266,6.79869433 35.0599638,3.10862115 C49.892601,-0.58145203 60.2865325,2.76273787 66.2417584,13.1411909 L97.2455866,195.396015 C99.7666713,209.193139 96.8147162,191.589399 83.7729373,196.581607 C70.7311585,201.573815 63.3219617,218.672731 52.9371035,201.648203 Z" id="R-Thy" fill="#021F3C" transform="translate(51.014751, 105.340475) rotate(-2.000000) translate(-51.014751, -105.340475) "></path>
                        </g>
                        <g id="R-Arm-Group" stroke-width="1" fill="none" transform="translate(223.718655, 165.377379) rotate(18.000000) translate(-223.718655, -165.377379) translate(173.718655, 107.377379)">
                            <g id="R-Bicep" transform="translate(49.658158, 57.696937) rotate(-4.000000) translate(-49.658158, -57.696937) ">
                                <use fill="#D0D0D0" xlink:href="#path-4"></use>
                                <use fill="url(#radialGradient-3)" style="mix-blend-mode: multiply;" xlink:href="#path-4"></use>
                            </g>
                        </g>
                        <g id="Neck" stroke-width="1" fill="none" transform="translate(140.000000, 72.000000)">
                            <mask id="mask-6" fill="white">
                                <use xlink:href="#path-5"></use>
                            </mask>
                            <use id="Neck-Mask" fill="#E97721" transform="translate(22.858097, 24.217399) rotate(12.000000) translate(-22.858097, -24.217399) " xlink:href="#path-5"></use>
                            <path d="M-5.20947879,-14.7359948 C-5.2136126,5.13130199 11.019368,21.2338057 31.0452462,21.229614 L31.0452462,21.229614 C51.0731917,21.2254202 67.3118423,5.11611828 67.3159777,-14.7511785 L67.3159777,-14.7511785 C67.3201113,-34.6174498 51.0881646,-50.7209792 31.060219,-50.716787 L31.060219,-50.716787 C11.0343408,-50.7125937 -5.20534362,-34.6022661 -5.20947879,-14.7359948 L-5.20947879,-14.7359948 Z" id="Head-Shaddow" fill="url(#linearGradient-7)" opacity="0.612583705" style="mix-blend-mode: multiply;" mask="url(#mask-6)" transform="translate(31.053249, -14.743587) rotate(-2.000000) translate(-31.053249, 14.743587) "></path>
                        </g>
                        <g id="Oval" stroke-width="1" fill="none" transform="translate(98.000000, 89.000000)">
                            <g id="Path" transform="translate(77.267759, 112.799289) rotate(-2.000000) translate(-77.267759, -112.799289) ">
                                <use fill="#D0D0D0" xlink:href="#path-9"></use>
                                <use fill="url(#linearGradient-8)" style="mix-blend-mode: multiply;" xlink:href="#path-9"></use>
                            </g>
                            <mask id="mask-11" fill="white">
                                <use xlink:href="#path-10"></use>
                            </mask>
                            <use id="Mask" fill="#D0D0D0" transform="translate(57.141180, 24.060567) rotate(-4.000000) translate(-57.141180, -24.060567) " xlink:href="#path-10"></use>
                            <ellipse fill="#E97721" mask="url(#mask-11)" cx="67.4149598" cy="7.42412489" rx="21.2530103" ry="12.6760508"></ellipse>
                        </g>
                        <g id="L-Arm-Group" stroke-width="1" fill="none" transform="translate(129.276484, 161.198514) rotate(-5.000000) translate(-129.276484, -161.198514) translate(71.276484, 98.698514)">
                            <path d="M61.7284197,33.1565905 L40.0602115,110.015742 C37.5549564,118.313492 28.1134493,123.191184 18.9720152,120.910372 C18.5298784,120.800058 18.0927741,120.673707 17.6617542,120.531625 L16.7534075,120.232195 C7.37715376,117.14138 2.1575036,108.054354 4.7353436,99.3096329 C18.1586767,56.5119569 27.5166821,30.755512 32.8093598,22.0402983 C40.7483764,8.96747768 59.53495,5.48996387 68.607834,2.41437897 C69.263788,2.19201942 64.3066329,24.6171936 61.7284197,33.1565905 Z" id="L-Bicep" fill="#D0D0D0" transform="translate(36.372861, 61.942141) rotate(4.000000) translate(-36.372861, -61.942141) "></path>
                            <path d="M9.86682173,77.7427475 L75.8713084,69.4798769 C84.1979382,68.4374952 91.7930227,74.3425451 92.8354044,82.669175 C92.9154755,83.3087898 92.954763,83.9528518 92.9530285,84.5974566 C92.9291719,93.4639167 85.7221463,100.632263 76.8556862,100.608407 C76.4678558,100.607363 76.0801905,100.592266 75.6934534,100.563146 L10.2980214,95.6390334 C5.69099919,95.2921361 2.09704297,91.509573 1.9860348,86.8908428 C1.87498845,82.2705243 5.28096327,78.3168351 9.86682173,77.7427475 Z" id="L-Forearm" fill="#E97721" transform="translate(47.394970, 84.597457) rotate(-215.000000) translate(-47.394970, -84.597457) "></path>
                            <g id="Group-48" transform="translate(88.533365, 49.424592) rotate(11.000000) translate(-88.533365, -49.424592) translate(66.033365, 26.424592)" fill="#E97721">
                                <path d="M1.24090742,37.0411892 L8.32827323,17.6820556 C9.63134706,14.1227106 13.297575,12.0085744 17.0309104,12.663666 L32.2460082,15.3334721 C36.5036725,16.0805681 39.3495504,20.137728 38.6024544,24.3953923 C38.504299,24.9547756 38.3455518,25.5018141 38.1290171,26.0268445 L32.815177,38.9112814 C31.5082667,42.0801392 28.2914711,44.0299261 24.8775034,43.7225205 L13.3814765,42.6873779 L13.3814765,42.6873779" id="Path-19" transform="translate(21.542744, 27.885548) rotate(-4.000000) translate(-21.542744, -27.885548) "></path>
                                <path d="M8.60813238,14.8536349 C9.4880819,11.4754161 14.0358063,7.88519361 22.2513055,4.08296737 C26.3393867,2.19095563 30.8154417,1.28785406 35.3173162,1.44673069 L36.4711895,1.48745228 C37.8094468,1.53468101 38.8560323,2.65783937 38.8088035,3.99609669 C38.7646505,5.24720274 37.7752793,6.25900269 36.5254774,6.33119182 C36.0163424,6.36059708 35.4809911,6.37540893 34.9194235,6.37562737 C32.7419544,6.37647436 26.9831762,9.2013054 17.6430889,14.8501205 C10.6753296,16.1630495 7.66367744,16.1642209 8.60813238,14.8536349 Z" id="Path-20" transform="translate(26.182536, 8.530029) rotate(-4.000000) translate(-26.182536, -8.530029) "></path>
                                <path d="M33.5901244,32.7528409 L40.2364371,30.6476615 C42.0083836,30.0864082 43.1410957,28.35621 42.9467614,26.5076879 L42.3235631,20.5797808 C42.1439751,18.8715271 40.871473,17.480045 39.1860305,17.1488865 L32.6865351,15.8718547 L32.6865351,15.8718547 L33.5901244,32.7528409 Z" id="Path-21" transform="translate(37.983581, 24.312348) rotate(-4.000000) translate(-37.983581, -24.312348) "></path>
                            </g>
                        </g>
                        <path d="M204.328907,190.011182 L243.322919,183.060056 C251.414303,181.617674 259.142946,187.007756 260.585327,195.099139 C260.656456,195.498151 260.711254,195.899903 260.749585,196.303388 C261.472303,203.911006 255.890988,210.664077 248.28337,211.386795 C247.576046,211.45399 246.864597,211.466605 246.155335,211.424528 L203.922641,208.919042 C199.217709,208.639919 195.588762,204.66817 195.734307,199.957214 C195.886639,195.026568 199.472467,190.876898 204.328907,190.011182 Z" id="R-Forearm" fill="#E97721" transform="translate(228.874930, 196.303388) rotate(-319.000000) translate(-228.874930, -196.303388) "></path>
                        <g id="Group-47" stroke-width="1" fill="none" transform="translate(204.991520, 157.756497) rotate(15.000000) translate(-204.991520, -157.756497) translate(183.991520, 120.756497)">
                            <path d="M35.1653813,29.7965735 L36.6057288,29.7976537 C38.0451093,29.7987331 39.2116866,30.9653151 39.2127603,32.4046956 L39.2252273,49.1179789 L39.2252273,49.1179789 L31.1343557,49.1119115 L31.1229631,33.8389757 C31.121299,31.6080827 32.928446,29.7982376 35.159339,29.7965735 C35.1613531,29.796572 35.1633672,29.796572 35.1653813,29.7965735 Z" id="Rectangle" fill="#E97721" transform="translate(35.172586, 39.455759) rotate(8.000000) translate(-35.172586, -39.455759) "></path>
                            <g id="Rectangle" transform="translate(3.068768, 0.000000)">
                                <mask id="mask-13" fill="white">
                                    <use xlink:href="#path-12"></use>
                                </mask>
                                <use id="Mask" fill="#316BBE" transform="translate(19.074830, 29.997834) rotate(7.000000) translate(-19.074830, -29.997834) " xlink:href="#path-12"></use>
                                <path d="M14.2990044,8.39380483 L26.6398477,5.91228429 C30.8777337,5.06012203 35.0040331,7.80479337 35.8561953,12.0426793 C35.9726711,12.6219245 36.0231841,13.2124957 36.0067692,13.8031073 L34.7284856,59.7959382 L34.7284856,59.7959382 L6.18781771,57.4541671 L8.02256821,15.7233851 C8.18065676,12.1277141 10.7704888,9.10332553 14.2990044,8.39380483 Z" fill="#316BBE" opacity="0.381138393" style="mix-blend-mode: multiply;" mask="url(#mask-13)" transform="translate(21.233886, 31.884886) rotate(7.000000) translate(-21.233886, -31.884886) "></path>
                            </g>
                            <path d="M10.456913,39.1435171 L29.2441603,40.0494509 C34.075589,43.3583843 39.0331873,45.3094565 38.6302267,49.3331265 C38.6011984,49.6229818 38.5549921,49.9108501 38.4918541,50.1951964 L30.6463816,72.2888278 L7.1456012,66.678566 C2.23325124,65.6064574 1.24054764,58.7579946 2.09212577,53.9877827 C2.54059141,51.4756514 2.71822744,48.4181624 2.62503388,44.8153157 C3.43826882,41.208846 6.79784564,38.7758612 10.456913,39.1435171 Z" id="Rectangle" fill="#E97721" transform="translate(20.236013, 55.697836) rotate(-4.000000) translate(-20.236013, -55.697836) "></path>
                            <path d="M16.64293,22.6166717 C18.8734436,22.6111476 20.6861103,24.4148579 20.6916344,26.6453715 C20.691651,26.6520457 20.6916509,26.6587199 20.6916344,26.665394 L20.6313396,50.9676571 L20.6313396,50.9676571 L12.5137909,50.9877611 L12.5740857,26.6854981 C12.5796552,24.4406513 14.3980832,22.6222314 16.64293,22.6166717 Z" id="Rectangle" fill="#E97721" transform="translate(16.607748, 36.797190) rotate(-57.000000) translate(-16.607748, -36.797190) "></path>
                        </g>
                        <g id="Group-42" stroke-width="1" fill="none" transform="translate(178.877064, 59.393998) rotate(-11.000000) translate(-178.877064, -59.393998) translate(125.877064, 9.393998)">
                            <g id="Group-38" transform="translate(50.100185, 50.012049) rotate(24.000000) translate(-50.100185, -50.012049) translate(12.600185, 12.512049)">
                                <path d="M7.82713156,50.8772643 C14.9224906,67.4452725 33.8507498,74.8972261 50.1043503,67.5217897 C66.3589035,60.1453792 73.7828533,40.7344049 66.6884435,24.1663932 C59.5930879,7.59741431 40.6648287,0.145460738 24.4112247,7.52186775 C8.15762077,14.8982748 0.732725184,34.3082819 7.82713156,50.8772643" id="Fill-93" fill="#E97721" transform="translate(37.257858, 37.521547) rotate(-9.000000) translate(-37.257858, -37.521547) "></path>
                                <ellipse id="Oval" fill="#444444" transform="translate(59.826049, 45.819585) rotate(-9.000000) translate(-59.826049, -45.819585) " cx="59.826049" cy="45.8195851" rx="3.79677781" ry="3.88264042"></ellipse>
                                <ellipse id="Oval" fill="#444444" transform="translate(37.190699, 48.506659) rotate(-9.000000) translate(-37.190699, -48.506659) " cx="37.1906988" cy="48.5066586" rx="3.79677781" ry="3.88264042"></ellipse>
                                <path d="M41.8149021,12.978711 C39.4355816,12.947403 37.0013087,13.4175961 34.6702699,14.4503824 C31.8693446,15.6895312 29.5687675,17.5866163 27.8675095,19.86924 L49.2072577,19.6813222 C52.1494814,19.6554129 54.5542826,17.2779786 54.5794665,14.3727661 L54.5925263,12.8661913 L41.8149021,12.978711 Z" id="Fill-95" fill="#D0D0D0" transform="translate(41.230018, 16.367716) rotate(-24.000000) translate(-41.230018, -16.367716) "></path>
                                <path d="M47.3201218,57.8341142 L54.7476618,57.2456656 C56.1212126,57.1954375 57.5222679,57.5730924 58.8590128,58.4323816 C60.4652317,59.4633259 61.7771344,61.061274 62.7398854,62.9944971 L51.6489104,63.5978407 C51.6402728,63.5978758 51.6316437,63.5978588 51.6230234,63.5977899 C51.6144021,63.5979289 51.6057727,63.5980161 51.5971351,63.5980512 L39.2819128,63.6481231 C40.2600721,61.7070085 41.5847275,60.0983406 43.1991985,59.0543014 C44.5428216,58.1841142 45.9469261,57.795054 47.3201218,57.8341142 Z" id="Path" fill="#D0D0D0" transform="translate(51.010899, 60.444689) rotate(-10.000000) translate(-51.010899, -60.444689) "></path>
                                <path d="M48.1485702,44.5359195 L52.5383633,44.5184141 C53.4188931,44.5149028 54.1355501,45.2258668 54.1390615,46.1063967 C54.1390782,46.1105934 54.1390784,46.1147902 54.139062,46.1189869 L54.0870944,59.4131969 C54.0836716,60.2888143 53.3747286,60.9978132 52.4991114,61.001305 L48.1093183,61.0188104 C47.2287884,61.0223217 46.5121315,60.3113577 46.5086201,59.4308278 C46.5086034,59.4266311 46.5086032,59.4224344 46.5086196,59.4182376 L46.5605871,46.1240276 C46.5640099,45.2484102 47.272953,44.5394113 48.1485702,44.5359195 Z" id="Rectangle" fill="#E2681A" transform="translate(50.323841, 52.768612) rotate(-11.000000) translate(-50.323841, -52.768612) "></path>
                            </g>
                            <path d="M41.6145825,53.5545495 L49.4826585,53.6039737 C52.775559,53.6246585 55.4397856,56.2891575 55.4601334,59.5820601 C55.4801567,62.822425 52.869554,65.4654918 49.6291891,65.4855151 C49.604819,65.4856657 49.5804483,65.4856644 49.5560783,65.4855113 L41.6880023,65.4360871 C38.3951019,65.4154024 35.7308753,62.7509033 35.7105274,59.4580008 C35.6905042,56.2176359 38.3011069,53.5745691 41.5414718,53.5545458 C41.5658418,53.5543952 41.5902125,53.5543965 41.6145825,53.5545495 Z" id="Rectangle" stroke="#D0D0D0" stroke-width="1.36971912" fill-opacity="0.270623907" fill="#D8D8D8" transform="translate(45.585330, 59.520030) rotate(16.000000) translate(-45.585330, -59.520030) "></path>
                            <line x1="36.3269548" y1="54.3462529" x2="22.8167335" y2="37.405284" id="Path-22" stroke="#D0D0D0" stroke-width="1.3044944" transform="translate(29.571844, 45.875768) rotate(1.000000) translate(-29.571844, -45.875768) "></line>
                            <path d="M65.7913922,61.5324979 L73.6594682,61.5819221 C76.9523687,61.6026068 79.6165953,64.2671059 79.6369431,67.5600085 C79.6569664,70.8003734 77.0463637,73.4434402 73.8059988,73.4634635 C73.7816287,73.463614 73.757258,73.4636128 73.732888,73.4634597 L65.864812,73.4140355 C62.5719116,73.3933508 59.907685,70.7288517 59.8873371,67.4359492 C59.8673139,64.1955843 62.4779166,61.5525174 65.7182815,61.5324942 C65.7426515,61.5323436 65.7670222,61.5323449 65.7913922,61.5324979 Z" id="Rectangle-Copy-133" stroke="#D0D0D0" stroke-width="1.36971912" fill-opacity="0.270623907" fill="#D8D8D8" transform="translate(69.762140, 67.497979) rotate(16.000000) translate(-69.762140, -67.497979) "></path>
                            <path d="M60.2883858,63.1484423 C59.9181362,61.6945942 58.6260333,60.6263953 57.0850143,60.6320346 C56.6444822,60.6336755 56.223662,60.7229049 55.8383907,60.8835514" id="Path" stroke="#D0D0D0" stroke-width="1.36971912" transform="translate(58.063388, 61.890238) rotate(-9.000000) translate(-58.063388, -61.890238) "></path>
                        </g>
                    </g>
                </g>
            </g>
        </g>
    </g>
</svg>